Coordinates
version=1
nRows=16
nColumns=36
inDegrees=yes

Units are S.I. units (second, meters, Newtons, ...)
If the header above contains a line with 'inDegrees', this indicates whether rotational values are in degrees (yes) or radians (no).

endheader
time	pelvis_tilt	pelvis_list	pelvis_rotation	pelvis_tx	pelvis_ty	pelvis_tz	hip_flexion_r	hip_adduction_r	hip_rotation_r	knee_angle_r	knee_angle_r_beta	ankle_angle_r	subtalar_angle_r	mtp_angle_r	hip_flexion_l	hip_adduction_l	hip_rotation_l	knee_angle_l	knee_angle_l_beta	ankle_angle_l	subtalar_angle_l	mtp_angle_l	lumbar_extension	lumbar_bending	lumbar_rotation	arm_flex_r	arm_add_r	arm_rot_r	elbow_flex_r	pro_sup_r	arm_flex_l	arm_add_l	arm_rot_l	elbow_flex_l	pro_sup_l
      4.62500000	    -17.92050338	      0.62559782	     -0.37000806	      0.35981409	      1.14497150	     -0.09609969	     15.46535491	     -4.12009647	     -9.62334752	      0.09065827	      0.00158229	    -31.57515398	     -0.31418511	     -7.49999987	     15.01280366	     -3.68080642	      0.60524104	      5.60922434	      0.09789943	    -31.15257151	     -3.96111794	     -7.49999987	     -0.22878524	     -3.06190294	      3.37156529	    -11.73633574	    -20.81746792	     26.30955859	     50.98037570	     80.53799149	    -20.40514518	    -21.06756358	     18.61176899	     63.26284465	     78.23861823
      4.62916670	    -17.25516057	      0.57200739	     -0.04480981	      0.36014109	      1.15114629	     -0.09734452	     14.44896020	     -4.20358609	     -9.47190125	      0.09680302	      0.00168953	    -31.58259281	     -0.73296093	     -7.49999987	     14.77270476	     -3.57370387	      0.48041008	      6.79965023	      0.11867628	    -31.13342587	     -3.41009483	     -7.49999987	     -1.12900899	     -3.00257763	      2.95424704	    -11.42979033	    -19.55075100	     26.14511112	     48.01472057	     79.25692672	    -19.60266734	    -20.84829252	     18.29096854	     61.10956587	     76.89083868
      4.63333330	    -16.52320378	      0.54586083	      0.23712464	      0.35904328	      1.15893112	     -0.09750309	     13.43873169	     -4.29827288	     -8.93346301	      0.10581925	      0.00184689	    -31.79005745	     -1.17446509	     -7.49999987	     14.64975971	     -3.52715829	      0.37159789	      8.12640579	      0.14183254	    -31.00721026	     -2.58107872	     -7.49999987	     -2.31548990	     -2.92862988	      2.78378336	    -10.83051595	    -18.51823048	     26.22936587	     45.12183545	     77.89671530	    -18.67256190	    -20.66330266	     18.21464252	     59.23637632	     75.41039704
      4.63750000	    -15.72299017	      0.47826294	      0.65414282	      0.35955771	      1.16672704	     -0.09924753	     12.28814462	     -4.39899298	     -8.56697444	      0.11876983	      0.00207292	    -32.21287926	     -1.37628209	     -7.49999987	     14.45977593	     -3.51182228	      0.37069205	      9.44340363	      0.16481849	    -31.00895353	     -1.66964671	     -7.49999987	     -3.64089077	     -2.76198905	      2.38309780	    -10.29995990	    -17.54765656	     26.10064784	     42.63027283	     76.83643640	    -17.86765554	    -20.33198394	     18.15266742	     57.21627839	     74.19308418
      4.64166670	    -14.95887195	      0.43948265	      1.01736905	      0.36022810	      1.16573769	     -0.09967429	     11.27189334	     -4.50758420	     -8.50579427	      0.13487314	      0.00235398	    -32.49605472	     -1.86142729	     -7.49999987	     14.36764753	     -3.51714956	      0.03323366	     10.90198566	      0.19027554	    -30.83370458	     -0.84939355	     -7.49999987	     -4.81590734	     -2.60177792	      2.32263975	    -10.20401765	    -16.77599920	     26.06660799	     40.66207778	     74.69691201	    -17.45292207	    -19.90555641	     18.12517641	     55.69966661	     72.02605325
      4.64583330	    -14.08511954	      0.38877610	      1.42332413	      0.35900875	      1.17775317	     -0.10429613	     10.14621711	     -4.66551592	     -8.36998913	      0.15894511	      0.00277412	    -33.03931386	     -2.05390903	     -7.49999987	     14.29681493	     -3.41353971	      0.17972927	     12.50894393	      0.21832226	    -30.72441967	     -0.31188089	     -7.49999987	     -6.26284600	     -2.30876752	      1.97512970	     -9.86080668	    -16.33693175	     25.76722595	     39.15640641	     74.72908983	    -16.97404655	    -19.15337918	     17.99105260	     54.00307727	     71.80289303
      4.65000000	    -13.03322041	      0.39136383	      1.73860238	      0.36101173	      1.18901328	     -0.10508380	      8.82298228	     -4.78031793	     -8.56043164	      0.18999186	      0.00331598	    -33.48295575	     -1.87386741	     -7.49999987	     13.65038574	     -3.26775921	     -0.02610507	     13.53627610	      0.23625259	    -30.90534966	      0.64699553	     -7.49999987	     -7.89463003	     -2.08097937	      1.75440523	     -9.51953992	    -15.60381308	     25.09532357	     37.12598171	     74.30190102	    -16.39073819	    -18.32385309	     17.87016268	     51.93422677	     70.61025651
      4.65416670	    -12.20257901	      0.30396119	      2.20249212	      0.36065174	      1.19548729	     -0.10289916	      7.73592277	     -4.69042380	     -8.44723530	      0.23615547	      0.00412169	    -33.99246792	     -2.11078529	     -7.49999987	     13.38158887	     -3.34276474	     -0.15719068	     14.67643605	      0.25615213	    -31.20729392	      1.25441555	     -7.49999987	     -9.28874003	     -1.85577830	      1.35575692	     -9.34698380	    -14.45469588	     24.61008458	     35.12166437	     72.83546308	    -15.55186298	    -17.94045851	     17.42404307	     50.22595374	     69.20351579
      4.65833330	    -11.13564552	      0.19700467	      2.64927507	      0.35974629	      1.19897771	     -0.10361091	      6.46890080	     -4.57799748	     -8.35672417	      0.31738672	      0.00553944	    -34.23211942	     -2.05116519	     -7.49999987	     12.90445430	     -3.47663914	     -0.27838771	     15.90538244	      0.27760129	    -31.16650139	      2.16860462	     -7.49999987	    -11.14520940	     -1.58662790	      1.09137700	     -8.93487349	    -13.60723717	     24.87209717	     33.25226939	     72.16720107	    -14.86545908	    -17.76394370	     16.98656517	     49.43305995	     68.11824339
      4.66250000	    -10.31643016	      0.14966776	      3.12240765	      0.35600332	      1.20346328	     -0.10557755	      5.59352271	     -4.54561567	     -8.19884992	      0.49747398	      0.00868256	    -34.72183672	     -2.32673320	     -7.49999987	     12.92427935	     -3.50785994	     -0.28990654	     17.40572790	      0.30378726	    -31.19490012	      2.68830498	     -7.49999987	    -12.79836224	     -1.29844386	      0.99035264	     -8.33435252	    -13.00204222	     25.45498759	     31.62943070	     71.10934734	    -14.47427805	    -16.91109779	     17.72692309	     48.12665364	     66.97906711
      4.66666670	     -9.64199808	      0.03858438	      3.65183112	      0.35469756	      1.20621004	     -0.10621774	      5.03102694	     -4.47230824	     -7.88671534	      0.97971704	      0.01709929	    -35.19378723	     -2.48431400	     -7.49999987	     13.29468913	     -3.56673468	     -0.22834990	     19.10937821	      0.33352157	    -30.90512419	      3.07652612	     -7.49999987	    -14.22348085	     -0.93652047	      0.87426836	     -7.80255645	    -12.49444959	     26.13829601	     30.23203469	     69.98879515	    -14.28155675	    -16.02084422	     18.89228084	     46.77716680	     65.87098966
      4.67083330	     -9.15783304	     -0.02276268	      4.06048978	      0.35235322	      1.21221458	     -0.10600864	      4.96081322	     -4.46223122	     -7.35777734	      1.90928807	      0.03332336	    -35.34767803	     -2.86167953	     -7.49999987	     13.78871063	     -3.63712513	     -0.34289135	     20.62996442	      0.36006080	    -30.73555101	      3.45984736	     -7.49999987	    -15.51296523	     -0.76254030	      0.66139846	     -7.22319723	    -11.85673399	     26.06761953	     28.84593301	     69.61024615	    -14.14208250	    -14.85966471	     19.98113427	     44.86513725	     65.42752510
      4.67500000	     -8.93086146	     -0.12854843	      4.24692373	      0.35146819	      1.21373950	     -0.10666798	      5.42826365	     -4.43379159	     -6.34761275	      3.35306463	      0.05852202	    -35.35161970	     -3.70627564	     -7.49999987	     14.45985196	     -3.82228959	     -0.65867402	     22.13732539	      0.38636922	    -30.24320210	      3.65476280	     -7.49999987	    -16.52536539	     -0.57217077	      0.87409575	     -6.94458444	    -11.60539505	     25.93097721	     28.10890421	     68.20535459	    -13.87485747	    -13.97125648	     20.64917428	     43.41936990	     64.49905013
      4.67916670	     -8.66563936	     -0.32737618	      4.46436152	      0.34890891	      1.21644304	     -0.10688473	      5.99186944	     -4.36662135	     -6.05132751	      4.96106983	      0.08658700	    -34.72888413	     -3.62744375	     -7.49999987	     15.14376223	     -4.07694595	     -0.75585285	     23.64383995	      0.41266285	    -29.87442192	      3.95453015	     -7.49999987	    -17.52642335	     -0.27073807	      0.96777649	     -6.33313503	    -11.29773586	     26.48150689	     26.66802436	     67.21768546	    -13.03895687	    -13.62867318	     22.75938274	     41.74583290	     63.57001069
      4.68333330	     -8.43368096	     -0.41572991	      4.58344352	      0.34679722	      1.22271118	     -0.10662818	      6.66182427	     -4.41662543	     -5.58440108	      6.61504982	      0.11545440	    -34.32883222	     -3.90429534	     -7.49999987	     15.71049427	     -4.25996150	     -0.91802027	     24.74489729	      0.43187993	    -30.03488656	      3.98254549	     -7.49999987	    -18.52195807	     -0.21821476	      0.79608216	     -5.75378642	    -10.72329374	     25.88374361	     25.57701982	     66.70638287	    -12.57212671	    -12.92145844	     23.14997899	     40.14952342	     63.10031739
      4.68750000	     -8.15640645	     -0.35040216	      4.66382119	      0.34695439	      1.22645233	     -0.10869208	      7.08477750	     -4.63667641	     -5.17349979	      8.08847980	      0.14117060	    -34.01368766	     -3.74751686	     -7.49999987	     15.99048460	     -4.20608640	     -0.88342539	     25.56261867	      0.44615186	    -30.50697488	      4.16112730	     -7.49999987	    -19.42971627	     -0.31593694	      0.73087310	     -5.35734106	    -10.52393518	     25.56544959	     24.95103653	     66.43791463	    -12.19681329	    -12.53729437	     23.33546086	     39.22841906	     62.86022171
